<?xml version="1.0" encoding="utf-8"?>
<svg xmlns="http://www.w3.org/2000/svg" width="140" height="140" viewBox="0 0 120 120" preserveAspectRatio="xMidYMid meet">
  <defs>
    <linearGradient id="goldGradient" x1="0%" y1="0%" x2="100%" y2="100%">
      <stop offset="0%" stop-color="#F5D061" />
      <stop offset="30%" stop-color="#FFF3CD" />
      <stop offset="70%" stop-color="#D4AF37" />
      <stop offset="100%" stop-color="#AA7C11" />
    </linearGradient>
  </defs>

  <!-- Very subtle watermark opacity to act as a repeating background motif -->
  <g opacity="0.02">
    <circle cx="60" cy="60" r="52" fill="none" stroke="url(#goldGradient)" stroke-width="1.5" stroke-dasharray="4 4" opacity="0.6"/>
    <circle cx="60" cy="60" r="47" fill="none" stroke="url(#goldGradient)" stroke-width="0.7" opacity="0.4"/>

    <path d="M 32,75 C 32,55 35,40 32,25 C 34,25 45,20 52,27 C 58,33 55,43 45,46 C 38,48 32,46 32,46" fill="none" stroke="url(#goldGradient)" stroke-width="5" stroke-linecap="round" stroke-linejoin="round"/>
    <path d="M 18,58 C 30,52 42,46 45,46 C 49,46 55,54 59,62 C 64,72 72,78 82,72 C 92,66 92,54 85,48 C 78,42 68,46 66,54 C 64,62 70,70 80,68" fill="none" stroke="url(#goldGradient)" stroke-width="5.5" stroke-linecap="round" stroke-linejoin="round"/>
    <path d="M 88,28 C 80,24 70,28 72,36 C 74,42 80,44 85,48" fill="none" stroke="url(#goldGradient)" stroke-width="5" stroke-linecap="round" stroke-linejoin="round"/>
    <path d="M 25,82 C 40,74 50,86 65,78 C 80,70 90,82 105,74" fill="none" stroke="#D4AF37" stroke-width="2.5" stroke-linecap="round" opacity="0.8"/>
  </g>
</svg>

